<svg xmlns="http://www.w3.org/2000/svg" viewBox="0 0 23 22" width="23" height="22">
    <path d="M15.6569 4.99999L11 0.34314L6.34315 4.99999L7.75736 6.41421L10 4.17157V16.0415C9.5905 16.0755 9.18242 16.1305 8.77749 16.2064L3.41418 10.8431H6V8.84314H0V14.8431H2L2 12.2574L6.58215 16.8395C5.10092 17.425 3.71268 18.3168 2.51472 19.5147L1.80761 20.2218L3.22183 21.636L3.92893 20.9289C7.83418 17.0237 14.1658 17.0237 18.0711 20.9289L18.7782 21.636L20.1924 20.2218L19.4853 19.5147C18.2942 18.3236 16.915 17.4353 15.4433 16.8496L20.0356 12.2573V14.8431H22.0356V8.84314H16.0356V10.8431H18.6214L13.2574 16.2071L13.2525 16.2121C12.8377 16.1332 12.4196 16.0764 12 16.0415V4.17157L14.2426 6.41421L15.6569 4.99999Z" />
</svg> 
