<svg width="24" height="24" viewBox="0 0 24 24" fill="none" xmlns="http://www.w3.org/2000/svg"> <path d="M17.657 5.65685L12.0001 0L6.34325 5.65685L7.75746 7.07107L11.0001 3.82843L11.0001 16.6569H13.0001L13.0001 3.82843L16.2427 7.07107L17.657 5.65685Z" fill="#000091"/> <path d="M4.9289 4.58579C1.02365 8.49104 1.02365 14.8227 4.9289 18.7279C8.83414 22.6332 15.1658 22.6332 19.071 18.7279C22.9763 14.8227 22.9763 8.49104 19.071 4.58579L18.3639 3.87869L19.7781 2.46447L20.4852 3.17158C25.1715 7.85787 25.1715 15.4559 20.4852 20.1421C15.799 24.8284 8.20097 24.8284 3.51468 20.1421C-1.17161 15.4558 -1.17161 7.85787 3.51468 3.17158L4.22179 2.46447L5.636 3.87869L4.9289 4.58579Z" fill="#000091"/> </svg>
