<svg width="24" height="22" viewBox="0 0 24 22" fill="none" xmlns="http://www.w3.org/2000/svg"> <path d="M4.92893 2.12132C1.02369 6.02656 1.02369 12.3582 4.92893 16.2635C6.62692 17.9614 8.78362 18.9212 11.0001 19.1426L11.0001 4.36395L7.7575 7.6066L6.34329 6.19238L12.0001 0.535528L17.657 6.19238L16.2428 7.6066L13.0001 4.36395L13.0001 19.1426C15.2166 18.9211 17.3731 17.9614 19.0711 16.2635C22.9763 12.3582 22.9763 6.02656 19.0711 2.12132L18.364 1.41421L19.7782 0L20.4853 0.707107C25.1716 5.3934 25.1716 12.9914 20.4853 17.6777C15.799 22.364 8.20101 22.364 3.51472 17.6777C-1.17157 12.9914 -1.17157 5.3934 3.51472 0.707107L4.22183 0L5.63604 1.41421L4.92893 2.12132Z"/> </svg>
